<?xml version="1.0" encoding="UTF-8"?>
<svg width="23px" height="23px" viewBox="0 0 23 23" version="1.1" xmlns="http://www.w3.org/2000/svg" xmlns:xlink="http://www.w3.org/1999/xlink">
    <!-- Generator: Sketch 54.1 (76490) - https://sketchapp.com -->
    <title>Group 3</title>
    <desc>Created with Sketch.</desc>
    <defs>
        <polygon id="path-1" points="0 0 23 0 23 23 0 23"></polygon>
    </defs>
    <g id="Que-es-Miio" stroke="none" stroke-width="1" fill="none" fill-rule="evenodd">
        <g id="Quiénes-somos" transform="translate(-1020.000000, -2061.000000)">
            <g id="footer" transform="translate(0.000000, 1918.000000)">
                <g id="Group-3" transform="translate(1020.000000, 143.000000)">
                    <mask id="mask-2" fill="white">
                        <use xlink:href="#path-1"></use>
                    </mask>
                    <g id="Clip-2"></g>
                    <path d="M15.1245241,8.44515204 C15.1245241,8.75971707 14.8696832,9.01455797 14.5551182,9.01455797 C14.2405532,9.01455797 13.9857123,8.75971707 13.9857123,8.44515204 C13.9857123,8.13058702 14.2405532,7.87574611 14.5551182,7.87574611 C14.8696832,7.87574611 15.1245241,8.13058702 15.1245241,8.44515204 L15.1245241,8.44515204 Z M11.5,9.49397236 C10.3938878,9.49397236 9.49397236,10.3938878 9.49397236,11.5 C9.49397236,12.6061122 10.3938878,13.5060276 11.5,13.5060276 C12.6061122,13.5060276 13.5060276,12.6061122 13.5060276,11.5 C13.5060276,10.3938878 12.6061122,9.49397236 11.5,9.49397236 L11.5,9.49397236 Z M11.5,14.4651267 C9.86528881,14.4651267 8.53487334,13.1349814 8.53487334,11.5 C8.53487334,9.86501856 9.86528881,8.53514358 11.5,8.53514358 C13.1349814,8.53514358 14.4651267,9.86501856 14.4651267,11.5 C14.4651267,13.1349814 13.1349814,14.4651267 11.5,14.4651267 L11.5,14.4651267 Z M9.18724444,6.64883442 C7.78764628,6.64883442 6.64883442,7.78764628 6.64883442,9.18724444 L6.64883442,13.8130258 C6.64883442,15.212624 7.78764628,16.3511656 9.18724444,16.3511656 L13.8127556,16.3511656 C15.212624,16.3511656 16.3514358,15.212624 16.3514358,13.8130258 L16.3514358,9.18724444 C16.3514358,7.78764628 15.212624,6.64883442 13.8127556,6.64883442 L9.18724444,6.64883442 Z M13.8127556,17.3102646 L9.18724444,17.3102646 C8.25300794,17.3102646 7.37471213,16.946515 6.71423368,16.2860366 C6.05375523,15.6252879 5.6897354,14.7469921 5.6897354,13.8130258 L5.6897354,9.18724444 C5.6897354,8.25300794 6.05375523,7.37471213 6.71423368,6.71423368 C7.37471213,6.05348498 8.25300794,5.6897354 9.18724444,5.6897354 L13.8127556,5.6897354 C14.7472623,5.6897354 15.6255581,6.05348498 16.2860366,6.71423368 C16.946515,7.37471213 17.3102646,8.25300794 17.3102646,9.18724444 L17.3102646,13.8130258 C17.3102646,14.7469921 16.946515,15.6252879 16.2860366,16.2860366 C15.6255581,16.946515 14.7472623,17.3102646 13.8127556,17.3102646 L13.8127556,17.3102646 Z M11.5,0 C5.14870517,0 0,5.14870517 0,11.5 C0,17.8512948 5.14870517,23 11.5,23 C17.8512948,23 23,17.8512948 23,11.5 C23,5.14870517 17.8512948,0 11.5,0 L11.5,0 Z" id="Fill-1" fill="#FF9E1A" mask="url(#mask-2)"></path>
                </g>
            </g>
        </g>
    </g>
</svg>