<?xml version="1.0" encoding="UTF-8"?>
<svg width="23px" height="23px" viewBox="0 0 23 23" version="1.1" xmlns="http://www.w3.org/2000/svg" xmlns:xlink="http://www.w3.org/1999/xlink">
    <!-- Generator: Sketch 54.1 (76490) - https://sketchapp.com -->
    <title>Group 3</title>
    <desc>Created with Sketch.</desc>
    <defs>
        <polygon id="path-1" points="0 0 23 0 23 23 0 23"></polygon>
    </defs>
    <g id="Que-es-Miio" stroke="none" stroke-width="1" fill="none" fill-rule="evenodd">
        <g id="Quiénes-somos" transform="translate(-982.000000, -2061.000000)">
            <g id="footer" transform="translate(0.000000, 1918.000000)">
                <g id="Group-3" transform="translate(982.000000, 143.000000)">
                    <mask id="mask-2" fill="white">
                        <use xlink:href="#path-1"></use>
                    </mask>
                    <g id="Clip-2"></g>
                    <path d="M17.5996334,8.7394487 C17.5996334,8.75620388 17.5993632,8.77295906 17.5990929,8.78971425 L17.5993632,8.789444 C17.5993632,8.789444 17.9579823,11.9415801 15.2933366,14.7272642 C12.6289612,17.512678 8.85710929,17.0456949 8.85710929,17.0456949 C8.85710929,17.0456949 6.93321348,16.9565141 5.29524011,15.8028387 C5.29524011,15.8028387 7.54856827,16.1873972 9.4478715,14.6494337 C9.4478715,14.6494337 7.56397241,14.7107792 6.81781757,12.6882667 C6.81781757,12.6882667 7.44830625,12.8344691 8.08690237,12.6344879 C8.08690237,12.6344879 5.92572879,12.2885745 5.84897834,9.83529163 C5.84897834,9.83529163 6.35650417,10.2044461 7.07941767,10.1890422 C7.07941767,10.1890422 5.01823587,8.80484796 6.24110825,6.43615171 C6.24110825,6.43615171 8.27229253,9.23832072 12.0454957,9.38749589 C11.9965808,9.17940734 11.9703667,8.96267096 11.9703667,8.7394487 C11.9703667,7.18500023 13.2305333,5.92484843 14.7850001,5.92484843 C15.5906095,5.92484843 16.3173064,6.26346524 16.8305075,6.80611693 C16.8305075,6.80611693 17.684221,6.70909903 18.6187388,6.12861306 C18.6187388,6.12861306 18.4225387,7.07852376 17.4191077,7.68198054 C17.4191077,7.68198054 18.3109262,7.58198994 18.9954645,7.23985994 C18.9954645,7.23985994 18.7838603,7.82061616 17.5996334,8.7394487 M11.5001351,0 C5.14876567,0 0,5.14870517 0,11.5 C0,17.8512948 5.14876567,23 11.5001351,23 C17.8515046,23 23,17.8512948 23,11.5 C23,5.14870517 17.8515046,0 11.5001351,0" id="Fill-1" fill="#FF9E1A" mask="url(#mask-2)"></path>
                </g>
            </g>
        </g>
    </g>
</svg>