<?xml version="1.0" encoding="UTF-8"?>
<svg width="23px" height="23px" viewBox="0 0 23 23" version="1.1" xmlns="http://www.w3.org/2000/svg" xmlns:xlink="http://www.w3.org/1999/xlink">
    <!-- Generator: Sketch 54.1 (76490) - https://sketchapp.com -->
    <title>FB-icon</title>
    <desc>Created with Sketch.</desc>
    <g id="Que-es-Miio" stroke="none" stroke-width="1" fill="none" fill-rule="evenodd">
        <g id="Quiénes-somos" transform="translate(-907.000000, -2061.000000)" fill="#FF9E1A">
            <g id="footer" transform="translate(0.000000, 1918.000000)">
                <g id="Group-3" transform="translate(906.000000, 140.000000)">
                    <g id="FB-icon" transform="translate(1.000000, 3.000000)">
                        <path d="M15.708372,5.91116427 L13.8822502,5.91116427 C12.9702467,5.91116427 12.5980846,6.44278465 12.5980846,7.16746106 L12.5980846,9.25812828 L15.3476704,9.25812828 L15.347841,12.2374672 L12.5980846,12.2374672 L12.5980846,19.908443 L9.55246763,19.908443 L9.55246763,12.2374672 L7.29162805,12.2374672 L7.29162805,9.25812828 L9.55246763,9.25812828 L9.55246763,6.77418613 C9.57985707,4.77349802 10.8862276,3.21274573 13.0607034,3.10772461 C13.9840311,3.06205288 14.8218137,3.12099295 15.708372,3.18989281 L15.708372,5.91116427 Z M11.5000171,0 C5.14873701,0 0,5.14872937 0,11.5 C0,17.8512706 5.14873701,23 11.5000171,23 C17.8512971,23 23,17.8512706 23,11.5 C23,5.14872937 17.8512971,0 11.5000171,0 L11.5000171,0 Z" id="Fill-1"></path>
                    </g>
                </g>
            </g>
        </g>
    </g>
</svg>