<?xml version="1.0" encoding="UTF-8"?>
<svg width="23px" height="23px" viewBox="0 0 23 23" version="1.1" xmlns="http://www.w3.org/2000/svg" xmlns:xlink="http://www.w3.org/1999/xlink">
    <!-- Generator: Sketch 54.1 (76490) - https://sketchapp.com -->
    <title>YT-icon</title>
    <desc>Created with Sketch.</desc>
    <defs>
        <polygon id="path-1" points="3.2122905e-05 0.0328727019 22.9670419 0.0328727019 22.9670419 22.9358755 3.2122905e-05 22.9358755"></polygon>
    </defs>
    <g id="Que-es-Miio" stroke="none" stroke-width="1" fill="none" fill-rule="evenodd">
        <g id="Quiénes-somos" transform="translate(-944.000000, -2061.000000)">
            <g id="footer" transform="translate(0.000000, 1918.000000)">
                <g id="YT-icon" transform="translate(955.500000, 154.500000) scale(1, -1) translate(-955.500000, -154.500000) translate(944.000000, 143.000000)">
                    <g id="Group-6" transform="translate(0.000000, -0.128134)">
                        <path d="M10.2113832,9.5788273 C10.1518274,9.54660167 10.0792939,9.58959053 10.0792939,9.65718106 L10.0792939,10.4316212 L10.0823134,13.3258412 C10.0823777,13.3933036 10.1546542,13.4362284 10.2141458,13.404195 L13.7490788,11.499039 L11.7331737,10.403624 L10.2113832,9.5788273 Z" id="Fill-1" fill="#FF9E1A"></path>
                        <g id="Group-5" transform="translate(0.000000, 0.128134)">
                            <mask id="mask-2" fill="white">
                                <use xlink:href="#path-1"></use>
                            </mask>
                            <g id="Clip-4"></g>
                            <path d="M18.2739818,11.1436025 L18.2739818,12.0149758 C18.2739818,13.1601708 18.1367528,14.3021624 18.1367528,14.3021624 C18.1367528,14.3021624 18.0056913,15.2730955 17.5968953,15.7025997 C17.0819008,16.2658755 16.5015684,16.2688866 16.236169,16.3000231 C14.3359064,16.4431485 11.4836494,16.4494911 11.4836494,16.4494911 C11.4836494,16.4494911 7.95424162,16.4151513 6.86521089,16.3061735 C6.56543994,16.247168 5.88520531,16.2658755 5.36719134,15.7025997 C4.9615433,15.2761708 4.8304176,14.3021624 4.8304176,14.3021624 C4.8304176,14.3021624 4.69299581,13.1601708 4.69299581,12.0149758 L4.69299581,11.0812655 L4.69299581,10.9444187 C4.69299581,9.80236295 4.8304176,8.66030724 4.8304176,8.66030724 C4.8304176,8.66030724 4.9615433,7.68629889 5.36719134,7.25679471 C5.88520531,6.69672228 6.46251816,6.69358301 6.72772486,6.65930724 C8.62824441,6.5192571 11.4805656,6.5192571 11.4805656,6.5192571 L11.4867332,6.5192571 C11.4867332,6.5192571 14.3359064,6.5192571 16.236169,6.65930724 C16.5015684,6.69358301 17.0819008,6.69672228 17.5968953,7.25679471 C18.0025433,7.68629889 18.1367528,8.66030724 18.1367528,8.66030724 C18.1367528,8.66030724 18.2739818,9.80236295 18.2739818,10.9444187 L18.2739818,11.1436025 Z M11.4835209,0.0328727019 C5.14136732,0.0328727019 3.2122905e-05,5.1599507 3.2122905e-05,11.4843741 C3.2122905e-05,17.8089256 5.14136732,22.9358755 11.4835209,22.9358755 C17.8256746,22.9358755 22.967074,17.8089256 22.967074,11.4843741 C22.967074,5.1599507 17.8256746,0.0328727019 11.4835209,0.0328727019 L11.4835209,0.0328727019 Z" id="Fill-3" fill="#FF9E1A" mask="url(#mask-2)"></path>
                        </g>
                    </g>
                </g>
            </g>
        </g>
    </g>
</svg>